<svg width="960" height="260" viewBox="0 0 960 260" fill="none" xmlns="http://www.w3.org/2000/svg" role="img" aria-labelledby="title">
  <title id="title">SkyTime logo</title>
  <defs>
    <linearGradient id="mark" x1="52" y1="34" x2="220" y2="230" gradientUnits="userSpaceOnUse">
      <stop stop-color="#38BDF8"/>
      <stop offset="0.52" stop-color="#2563EB"/>
      <stop offset="1" stop-color="#0F4FD8"/>
    </linearGradient>
    <linearGradient id="word" x1="270" y1="56" x2="918" y2="178" gradientUnits="userSpaceOnUse">
      <stop stop-color="#38BDF8"/>
      <stop offset="0.44" stop-color="#2563EB"/>
      <stop offset="1" stop-color="#0F4FD8"/>
    </linearGradient>
  </defs>
  <circle cx="136" cy="118" r="79" fill="url(#mark)"/>
  <path d="M79 110 126 143l46-45" stroke="#DDF4FF" stroke-width="14" stroke-linecap="round" stroke-linejoin="round"/>
  <path d="M136 50v16" stroke="#DDF4FF" stroke-width="8" stroke-linecap="round" opacity="0.9"/>
  <path d="M204 124h14" stroke="#DDF4FF" stroke-width="8" stroke-linecap="round" opacity="0.7"/>
  <path d="M38 155c0-22.5 18.2-40.8 40.7-40.8 14.1 0 26.5 7.2 33.8 18.1 7.2-4.1 15.6-6.5 24.5-6.5 26.6 0 48.2 21.6 48.2 48.2v8.7H69.4C52.1 182.7 38 170.3 38 155Z" fill="#E0F2FE"/>
  <path d="M38 155c0-22.5 18.2-40.8 40.7-40.8 14.1 0 26.5 7.2 33.8 18.1 7.2-4.1 15.6-6.5 24.5-6.5 26.6 0 48.2 21.6 48.2 48.2v8.7H69.4C52.1 182.7 38 170.3 38 155Z" stroke="#93C5FD" stroke-width="5"/>
  <path d="M75 187.5c26.8 25.6 68.5 29.9 100 10.3" stroke="#0F4FD8" stroke-width="10" stroke-linecap="round" opacity="0.45"/>
  <text x="262" y="166" fill="url(#word)" font-family="Inter, Geist, ui-sans-serif, system-ui, -apple-system, BlinkMacSystemFont, 'Segoe UI', sans-serif" font-size="138" font-weight="800" letter-spacing="0">SkyTime</text>
</svg>
