<svg width="256" height="256" viewBox="0 0 256 256" fill="none" xmlns="http://www.w3.org/2000/svg" role="img" aria-labelledby="title">
  <title id="title">SkyTime mark</title>
  <defs>
    <linearGradient id="mark" x1="49" y1="36" x2="210" y2="224" gradientUnits="userSpaceOnUse">
      <stop stop-color="#38BDF8"/>
      <stop offset="0.52" stop-color="#2563EB"/>
      <stop offset="1" stop-color="#0F4FD8"/>
    </linearGradient>
    <radialGradient id="glow" cx="0" cy="0" r="1" gradientUnits="userSpaceOnUse" gradientTransform="translate(83 83) rotate(46) scale(174)">
      <stop stop-color="#7DD3FC" stop-opacity="0.95"/>
      <stop offset="1" stop-color="#2563EB" stop-opacity="0"/>
    </radialGradient>
  </defs>
  <circle cx="128" cy="128" r="105" fill="url(#glow)"/>
  <circle cx="137" cy="113" r="79" fill="url(#mark)"/>
  <path d="M80 105.5 126.5 138l45-43.5" stroke="#DDF4FF" stroke-width="14" stroke-linecap="round" stroke-linejoin="round"/>
  <path d="M137 45v16" stroke="#DDF4FF" stroke-width="8" stroke-linecap="round" opacity="0.9"/>
  <path d="M204 119h14" stroke="#DDF4FF" stroke-width="8" stroke-linecap="round" opacity="0.7"/>
  <path d="M207 152l10 5" stroke="#DDF4FF" stroke-width="8" stroke-linecap="round" opacity="0.55"/>
  <path d="M37 151c0-22.5 18.2-40.8 40.7-40.8 14.1 0 26.5 7.2 33.8 18.1 7.2-4.1 15.6-6.5 24.5-6.5 26.6 0 48.2 21.6 48.2 48.2v8.7H68.4C51.1 178.7 37 166.3 37 151Z" fill="#E0F2FE"/>
  <path d="M37 151c0-22.5 18.2-40.8 40.7-40.8 14.1 0 26.5 7.2 33.8 18.1 7.2-4.1 15.6-6.5 24.5-6.5 26.6 0 48.2 21.6 48.2 48.2v8.7H68.4C51.1 178.7 37 166.3 37 151Z" stroke="#93C5FD" stroke-width="5"/>
  <path d="M74 183.5c26.8 25.6 68.5 29.9 100 10.3" stroke="#0F4FD8" stroke-width="10" stroke-linecap="round" opacity="0.45"/>
</svg>
